<svg width="20" height="20" viewBox="0 0 20 20" fill="none" xmlns="http://www.w3.org/2000/svg">
<path d="M15 7.49998C15.925 7.49998 16.6667 8.24165 16.6667 9.16665V11.6666C16.6667 12.5916 15.925 13.3333 15 13.3333H13.1417L12.1084 12.3083C11.4834 11.6666 10.6417 11.3333 9.75004 11.3333C8.85837 11.3333 8.02504 11.6666 7.39171 12.3083L6.36671 13.3333H5.00004C4.07504 13.3333 3.33337 12.5916 3.33337 11.6666V9.16665C3.33337 8.24165 4.07504 7.49998 5.00004 7.49998H15ZM15 5.83331H5.00004C4.11599 5.83331 3.26814 6.1845 2.64302 6.80962C2.0179 7.43474 1.66671 8.28259 1.66671 9.16665H0.833374V11.6666H1.66671C1.66671 12.5507 2.0179 13.3985 2.64302 14.0237C3.26814 14.6488 4.11599 15 5.00004 15H7.08337C7.11671 14.95 7.15837 14.9 8.57504 13.4833C8.90004 13.1583 9.32504 13 9.75004 13C10.1834 13 10.6084 13.1583 10.9334 13.4833L12.425 15H15C15.8841 15 16.7319 14.6488 17.3571 14.0237C17.9822 13.3985 18.3334 12.5507 18.3334 11.6666H19.1667V9.16665H18.3334C18.3334 8.28259 17.9822 7.43474 17.3571 6.80962C16.7319 6.1845 15.8841 5.83331 15 5.83331Z" fill="white"/>
</svg>
